# xmcd
#
# Track frame offsets:
#        150
#        16912
#        33112
#        48310
#        69005
#        92955
#        112937
#        126190
#        145292
#
# Disc length: 2297 seconds
#
# Revision: 0
# Processed by: cddbd v1.5.1PL0 Copyright (c) Steve Scherf et al.
# Submitted via: ExactAudioCopy v0.95a3
#
DISCID=6c08f709
DTITLE=BAKU - DAY AFTER
DYEAR=1991
DGENRE=Rock
TTITLE0=NOT FOR SALE
TTITLE1=LOVE SONG(NEW RECORDING)
TTITLE2=MY WAY
TTITLE3=SO HAPPY
TTITLE4=TONARI NI IKUYO
TTITLE5=BICYCLE GO GO(INSTRUMENTAL)
TTITLE6=YOU BELONG TO ME
TTITLE7=ON AND ON
TTITLE8=DAY AFTER
EXTD=
EXTT0=
EXTT1=
EXTT2=
EXTT3=
EXTT4=
EXTT5=
EXTT6=
EXTT7=
EXTT8=
PLAYORDER=
